<mxfile host="app.diagrams.net" modified="2024-10-01T15:40:10.562Z" agent="Mozilla/5.0 (Windows NT 10.0; Win64; x64) AppleWebKit/537.36 (KHTML, like Gecko) Chrome/129.0.0.0 Safari/537.36" etag="XWt3jbenbYPt-6VLumdq" version="24.7.3" type="device">
  <diagram name="Pagina-1" id="ofmIGp3C_NIkNrDQLj04">
    <mxGraphModel dx="2074" dy="1140" grid="1" gridSize="10" guides="1" tooltips="1" connect="1" arrows="1" fold="1" page="1" pageScale="1" pageWidth="1169" pageHeight="827" math="0" shadow="0">
      <root>
        <mxCell id="0" />
        <mxCell id="1" parent="0" />
        <mxCell id="vTZS8g9CYsPAUiSM_Fy8-1" value="" style="image;aspect=fixed;perimeter=ellipsePerimeter;html=1;align=center;shadow=0;dashed=0;spacingTop=3;image=img/lib/active_directory/laptop_client.svg;" vertex="1" parent="1">
          <mxGeometry x="150" y="80" width="99" height="110" as="geometry" />
        </mxCell>
        <mxCell id="vTZS8g9CYsPAUiSM_Fy8-2" value="" style="endArrow=classic;html=1;rounded=0;" edge="1" parent="1">
          <mxGeometry width="50" height="50" relative="1" as="geometry">
            <mxPoint x="270" y="140" as="sourcePoint" />
            <mxPoint x="530" y="140" as="targetPoint" />
          </mxGeometry>
        </mxCell>
        <mxCell id="vTZS8g9CYsPAUiSM_Fy8-5" value="" style="edgeStyle=orthogonalEdgeStyle;rounded=0;orthogonalLoop=1;jettySize=auto;html=1;" edge="1" parent="1" source="vTZS8g9CYsPAUiSM_Fy8-3" target="vTZS8g9CYsPAUiSM_Fy8-4">
          <mxGeometry relative="1" as="geometry" />
        </mxCell>
        <mxCell id="vTZS8g9CYsPAUiSM_Fy8-3" value="" style="outlineConnect=0;dashed=0;verticalLabelPosition=bottom;verticalAlign=top;align=center;html=1;shape=mxgraph.aws3.router;fillColor=#F58534;gradientColor=none;" vertex="1" parent="1">
          <mxGeometry x="550" y="99" width="69" height="72" as="geometry" />
        </mxCell>
        <mxCell id="vTZS8g9CYsPAUiSM_Fy8-7" value="" style="edgeStyle=orthogonalEdgeStyle;rounded=0;orthogonalLoop=1;jettySize=auto;html=1;" edge="1" parent="1" source="vTZS8g9CYsPAUiSM_Fy8-4" target="vTZS8g9CYsPAUiSM_Fy8-6">
          <mxGeometry relative="1" as="geometry" />
        </mxCell>
        <mxCell id="vTZS8g9CYsPAUiSM_Fy8-10" value="" style="edgeStyle=orthogonalEdgeStyle;rounded=0;orthogonalLoop=1;jettySize=auto;html=1;" edge="1" parent="1" source="vTZS8g9CYsPAUiSM_Fy8-4" target="vTZS8g9CYsPAUiSM_Fy8-9">
          <mxGeometry relative="1" as="geometry" />
        </mxCell>
        <mxCell id="vTZS8g9CYsPAUiSM_Fy8-4" value="controller" style="whiteSpace=wrap;html=1;verticalAlign=top;fillColor=#F58534;dashed=0;gradientColor=none;" vertex="1" parent="1">
          <mxGeometry x="525" y="330" width="120" height="60" as="geometry" />
        </mxCell>
        <mxCell id="vTZS8g9CYsPAUiSM_Fy8-6" value="model" style="whiteSpace=wrap;html=1;verticalAlign=top;fillColor=#F58534;dashed=0;gradientColor=none;" vertex="1" parent="1">
          <mxGeometry x="725" y="330" width="120" height="60" as="geometry" />
        </mxCell>
        <mxCell id="vTZS8g9CYsPAUiSM_Fy8-8" value="" style="shape=cylinder3;whiteSpace=wrap;html=1;boundedLbl=1;backgroundOutline=1;size=15;" vertex="1" parent="1">
          <mxGeometry x="970" y="320" width="60" height="80" as="geometry" />
        </mxCell>
        <mxCell id="vTZS8g9CYsPAUiSM_Fy8-11" style="edgeStyle=orthogonalEdgeStyle;rounded=0;orthogonalLoop=1;jettySize=auto;html=1;exitX=0;exitY=0.25;exitDx=0;exitDy=0;entryX=0.75;entryY=1;entryDx=0;entryDy=0;" edge="1" parent="1" source="vTZS8g9CYsPAUiSM_Fy8-9" target="vTZS8g9CYsPAUiSM_Fy8-1">
          <mxGeometry relative="1" as="geometry" />
        </mxCell>
        <mxCell id="vTZS8g9CYsPAUiSM_Fy8-9" value="view" style="whiteSpace=wrap;html=1;verticalAlign=top;fillColor=#F58534;dashed=0;gradientColor=none;" vertex="1" parent="1">
          <mxGeometry x="325" y="330" width="120" height="60" as="geometry" />
        </mxCell>
      </root>
    </mxGraphModel>
  </diagram>
</mxfile>
